<svg width="19" height="18" fill="none" xmlns="http://www.w3.org/2000/svg"><g filter="url(#filter0_d)" fill="#3165BC"><path d="M3.04 15.81s-.014.335.314.335l3.78-.004.006-3.099s-.053-.51.443-.51h1.569c.586 0 .55.51.55.51l-.007 3.089h3.701c.416 0 .397-.418.397-.418v-5.712l-5.216-4.64-5.537 4.64v5.809z"/><path d="M1 9.57s.47.866 1.496 0l6.127-5.184 5.745 5.151c1.187.856 1.632 0 1.632 0L8.623 2.855 1 9.569zm13.23-5.197h-1.48l.006 1.792 1.472 1.249v-3.04z"/></g><defs><filter id="filter0_d" x="0" y="-.5" width="19" height="19" filterUnits="userSpaceOnUse" color-interpolation-filters="sRGB"><feFlood flood-opacity="0" result="BackgroundImageFix"/><feColorMatrix in="SourceAlpha" values="0 0 0 0 0 0 0 0 0 0 0 0 0 0 0 0 0 0 127 0"/><feOffset dx="1" dy="-.5"/><feGaussianBlur stdDeviation="1"/><feColorMatrix values="0 0 0 0 0 0 0 0 0 0 0 0 0 0 0 0 0 0 0.25 0"/><feBlend in2="BackgroundImageFix" result="effect1_dropShadow"/><feBlend in="SourceGraphic" in2="effect1_dropShadow" result="shape"/></filter></defs></svg>