<svg width="32" height="32" fill="none" xmlns="http://www.w3.org/2000/svg"><path fill-rule="evenodd" clip-rule="evenodd" d="M17.49 9.17c-.38-1.56-2.6-1.56-2.98 0a1.534 1.534 0 01-2.286.948c-1.372-.836-2.942.734-2.106 2.106.54.886.06 2.042-.947 2.287-1.561.379-1.561 2.6 0 2.978a1.532 1.532 0 01.947 2.287c-.836 1.372.734 2.942 2.106 2.106a1.532 1.532 0 012.287.947c.379 1.561 2.6 1.561 2.978 0a1.53 1.53 0 011.608-1.166c.24.018.473.093.679.219 1.372.836 2.942-.734 2.106-2.106a1.533 1.533 0 01.947-2.287c1.56-.379 1.56-2.6 0-2.978a1.532 1.532 0 01-.947-2.287c.836-1.372-.734-2.942-2.106-2.106a1.533 1.533 0 01-2.287-.947V9.17zM16 19a3 3 0 100-6 3 3 0 000 6z" fill="#5B6871"/></svg>