<svg width="30" height="30" fill="none" xmlns="http://www.w3.org/2000/svg"><g clip-path="url(#clip0)" fill="#5B6871"><path d="M16.875 26.25h-5a.625.625 0 010-1.25h5a1.877 1.877 0 001.875-1.875v-6.25a.625.625 0 011.25 0v6.25a3.129 3.129 0 01-3.125 3.125zm12.5-12.5h-12.5a.625.625 0 010-1.25h12.5a.625.625 0 010 1.25z"/><path d="M10 30c-.275 0-.544-.046-.797-.136l-7.488-2.497A2.498 2.498 0 010 25V2.5C0 1.121 1.121 0 2.5 0c.277 0 .547.046.799.138l7.486 2.494A2.495 2.495 0 0112.5 5v22.5c0 1.379-1.121 2.5-2.5 2.5zM2.5 1.25c-.69 0-1.25.561-1.25 1.25V25c0 .535.345 1.01.86 1.183l7.5 2.5c.82.29 1.64-.366 1.64-1.183V5c0-.536-.345-1.011-.86-1.181l-7.5-2.5a1.15 1.15 0 00-.39-.069z"/><path d="M19.375 10a.625.625 0 01-.625-.625v-6.25a1.877 1.877 0 00-1.875-1.875H2.5A.625.625 0 012.5 0h14.375A3.129 3.129 0 0120 3.125v6.25c0 .345-.28.625-.625.625zm5 8.75a.625.625 0 01-.442-1.066l4.557-4.558-4.557-4.557a.625.625 0 01.883-.884l5 5a.625.625 0 010 .884l-5 5a.627.627 0 01-.44.181z"/></g><defs><clipPath id="clip0"><path fill="#fff" d="M0 0h30v30H0z"/></clipPath></defs></svg>