<svg width="99" height="51" fill="none" xmlns="http://www.w3.org/2000/svg"><g filter="url(#filter0_d)"><path d="M4.34 25.57c-.08.42.03.75.33.99.32.22.81.33 1.47.33V28H1.13v-1.11c.58 0 1.01-.1 1.29-.3.28-.2.47-.54.57-1.02l4.5-20.49h1.44l4.65 20.55c.1.5.27.84.51 1.02.26.16.69.24 1.29.24V28H8.42v-1.11c.72 0 1.22-.09 1.5-.27.3-.2.4-.52.3-.96l-.63-3.03H4.97l-.63 2.94zm.9-4.14h4.08l-1.98-9.57-2.1 9.57zm22.367 4.86c0 .56-.2 1.03-.6 1.41-.38.36-.84.53-1.38.51-.56-.02-1.04-.23-1.44-.63-.38-.42-.57-.94-.57-1.56 0-.56.19-1.03.57-1.41.4-.4.87-.59 1.41-.57.58.02 1.06.24 1.44.66.38.42.57.95.57 1.59zM42.077 6.4c-.68 0-1.28.26-1.8.78-.5.5-.75 1.1-.75 1.8 0 .56.13 1.12.39 1.68.28.54.73 1.16 1.35 1.86l3.03 3.54c.86 1 1.52 1.87 1.98 2.61.48.72.81 1.42.99 2.1.2.66.3 1.4.3 2.22 0 .98-.25 1.87-.75 2.67-.5.8-1.17 1.44-2.01 1.92-.84.48-1.77.72-2.79.72-.74 0-1.34-.07-1.8-.21a7.3 7.3 0 01-1.11-.42c-.26-.14-.49-.21-.69-.21-.2 0-.39.06-.57.18-.18.1-.29.22-.33.36h-1.05v-6.36h1.02c.28 1.6.78 2.86 1.5 3.78.72.9 1.56 1.35 2.52 1.35.84 0 1.5-.28 1.98-.84.5-.56.75-1.32.75-2.28 0-.78-.19-1.56-.57-2.34-.38-.8-.99-1.68-1.83-2.64l-2.52-2.91c-1.04-1.22-1.77-2.25-2.19-3.09-.42-.86-.63-1.77-.63-2.73 0-.84.25-1.62.75-2.34.5-.72 1.15-1.3 1.95-1.74a5.44 5.44 0 012.61-.66c.76 0 1.3-.06 1.62-.18.32-.12.56-.34.72-.66h1.02l1.32 5.43-1.02.27c-.38-1-.73-1.76-1.05-2.28-.32-.52-.66-.88-1.02-1.08-.34-.2-.78-.3-1.32-.3zm18.36 19.89c0 .56-.2 1.03-.6 1.41-.38.36-.84.53-1.38.51-.56-.02-1.04-.23-1.44-.63-.38-.42-.57-.94-.57-1.56 0-.56.19-1.03.57-1.41.4-.4.87-.59 1.41-.57.58.02 1.06.24 1.44.66.38.42.57.95.57 1.59zm9.07.6c.64 0 1.1-.1 1.38-.3.28-.2.42-.53.42-.99V7.9c0-.46-.14-.79-.42-.99-.28-.2-.74-.3-1.38-.3V5.5h7.68c3.76 0 5.64 2.13 5.64 6.39v1.89c0 4.24-1.88 6.36-5.64 6.36h-1.32v-1.2h1.32c.66 0 1.19-.27 1.59-.81.4-.54.6-1.25.6-2.13V9.58c0-.86-.21-1.55-.63-2.07-.4-.54-.92-.81-1.56-.81h-2.52v18.9c0 .46.14.79.42.99.28.2.74.3 1.38.3V28h-6.96v-1.11zm26.192-.6c0 .56-.2 1.03-.6 1.41-.38.36-.84.53-1.38.51-.56-.02-1.04-.23-1.44-.63-.38-.42-.57-.94-.57-1.56 0-.56.19-1.03.57-1.41.4-.4.87-.59 1.41-.57.58.02 1.06.24 1.44.66.38.42.57.95.57 1.59z" fill="#000"/></g><g filter="url(#filter1_d)"><path d="M14.533 45.915h-3.585v-.392h.448c.411 0 .616-.13.616-.392 0-.037-.046-.196-.14-.476l-.951-2.492H7.392l-.924 2.38c0 .019-.032.135-.098.35-.065.205-.098.35-.098.434 0 .075.052.126.154.154.103.028.322.042.658.042h.224v.392H4.564v-.392h.196c.308 0 .532-.051.672-.154.14-.112.262-.294.364-.546l3.08-8.036c.047-.01.131-.075.252-.196.122-.13.234-.261.336-.392.103-.14.154-.22.154-.238 0-.019-.004-.033-.014-.042l.196-.056 3.444 9.016c.103.215.206.378.309.49.111.103.27.154.475.154h.505v.392zm-3.864-4.34L9.155 37.57l-1.54 4.004h3.053zm10.53 4.34h-2.017v-1.652c-.214.588-.546 1.045-.994 1.372-.448.317-.994.476-1.638.476-.336 0-.62-.075-.854-.224a1.294 1.294 0 01-.504-.574 2.928 2.928 0 01-.266-1.19V40.79c0-.43-.27-.644-.812-.644v-.392c.187 0 .467-.051.84-.154.383-.103.663-.21.84-.322l.252-.028v4.62c0 .42.098.742.294.966.206.215.49.322.854.322.523 0 .985-.28 1.386-.84.402-.56.602-.98.602-1.26V40.79c0-.43-.27-.644-.812-.644v-.392c.206 0 .495-.051.868-.154.383-.103.663-.21.84-.322l.252-.028v5.712c0 .13.01.229.028.294.047.177.243.266.588.266h.252v.392zm5.044-.868l.112.336a3.95 3.95 0 01-2.296.728 1.05 1.05 0 01-.77-.322c-.215-.215-.322-.5-.322-.854v-4.956h-.812v-.588h.308c.308 0 .592-.187.854-.56.27-.373.406-.719.406-1.036h.364v1.596h1.904v.588h-1.372c-.355 0-.532.168-.532.504v4.004c0 .616.224.924.672.924.504 0 .998-.121 1.484-.364zm3.442 1.064c-.821 0-1.507-.308-2.058-.924a3.133 3.133 0 01-.826-2.156c0-1.045.392-1.946 1.176-2.702.793-.756 1.629-1.134 2.506-1.134.877 0 1.582.313 2.114.938.541.616.812 1.33.812 2.142 0 1.017-.378 1.913-1.134 2.688-.746.765-1.61 1.148-2.59 1.148zm-1.904-3.836c0 .868.262 1.591.784 2.17.532.57 1.125.854 1.778.854.663 0 1.18-.247 1.554-.742.373-.495.56-1.003.56-1.526 0-.793-.247-1.484-.742-2.072-.485-.597-1.078-.896-1.778-.896s-1.236.238-1.61.714c-.364.467-.546.966-.546 1.498zm6.445 2.968l.196-1.82.476.028c0 .513.303.929.91 1.246.616.308 1.311.462 2.086.462.784 0 1.372-.117 1.764-.35.392-.243.588-.546.588-.91 0-.616-.327-1.167-.98-1.652a6.133 6.133 0 00-.854-.518l-1.288-.672a6.435 6.435 0 00-.574-.308 7.212 7.212 0 01-.602-.322 8.432 8.432 0 01-.574-.434c-.467-.373-.7-.789-.7-1.246 0-.467.079-.873.238-1.218.168-.345.373-.616.616-.812a3.46 3.46 0 01.882-.49 5.582 5.582 0 011.904-.308c.709 0 1.39.177 2.044.532l-.168 1.624h-.476c0-.877-.738-1.316-2.212-1.316-.682 0-1.195.107-1.54.322-.336.215-.504.509-.504.882 0 .597.97 1.316 2.912 2.156 1.278.55 2.095 1.162 2.45 1.834.177.336.266.705.266 1.106 0 .97-.392 1.722-1.176 2.254-.775.532-1.713.798-2.814.798-1.102 0-2.058-.29-2.87-.868zm14.92.672h-2.435v-.392h.084c.093 0 .173-.047.238-.14a.717.717 0 00.098-.392v-3.556c0-.859-.373-1.288-1.12-1.288-.532 0-1.003.28-1.414.84-.401.56-.602.98-.602 1.26v2.66c0 .14.01.247.028.322.047.196.243.294.588.294h.28v.392h-2.828v-.392h.196c.252 0 .415-.042.49-.126.084-.093.126-.229.126-.406v-8.316c0-.177-.06-.303-.182-.378-.121-.084-.331-.126-.63-.126v-.392c.196 0 .485-.051.868-.154.383-.103.653-.21.812-.322l.252-.056v5.796c.485-1.232 1.363-1.848 2.632-1.848.336 0 .62.075.854.224.243.15.415.34.518.574.187.392.28.789.28 1.19v3.78c0 .13.01.229.028.294.037.177.224.266.56.266h.28v.392zm3.727.196c-.822 0-1.508-.308-2.058-.924a3.133 3.133 0 01-.826-2.156c0-1.045.392-1.946 1.176-2.702.793-.756 1.628-1.134 2.506-1.134.877 0 1.582.313 2.114.938.541.616.812 1.33.812 2.142 0 1.017-.378 1.913-1.134 2.688-.747.765-1.61 1.148-2.59 1.148zm-1.904-3.836c0 .868.261 1.591.784 2.17.532.57 1.124.854 1.778.854.662 0 1.18-.247 1.554-.742.373-.495.56-1.003.56-1.526 0-.793-.248-1.484-.742-2.072-.486-.597-1.078-.896-1.778-.896s-1.237.238-1.61.714c-.364.467-.546.966-.546 1.498zm9.412 6.916h-2.828v-.42h.168c.206 0 .355-.033.448-.098.103-.065.159-.13.168-.196.019-.065.028-.173.028-.322v-7.252c0-.43-.27-.644-.812-.644v-.364c.178 0 .458-.07.84-.21.383-.15.663-.285.84-.406l.252-.028v1.764c.196-.532.514-.966.952-1.302.439-.345.98-.518 1.624-.518.644 0 1.153.21 1.526.63.383.42.574.985.574 1.694 0 1.316-.345 2.413-1.036 3.29-.69.868-1.53 1.302-2.52 1.302-.345 0-.718-.093-1.12-.28v2.38c0 .13.01.229.028.294.047.177.243.266.588.266h.28v.42zm-.896-7.028v2.492a3.4 3.4 0 00.168.224c.075.093.229.215.462.364.243.15.49.224.742.224.681 0 1.246-.322 1.694-.966.457-.644.686-1.46.686-2.45 0-.55-.172-1.003-.518-1.358a1.66 1.66 0 00-1.274-.546c-.504 0-.956.285-1.358.854-.401.56-.602.947-.602 1.162zm8.372-1.204l.672.028c.7 0 1.344-.112 1.932-.336.345-.13.62-.336.826-.616.215-.28.322-.625.322-1.036 0-1.475-.887-2.212-2.66-2.212l-1.456.056v8.064c0 .13.01.233.028.308.019.075.08.145.182.21.103.065.257.098.462.098h.532v.392h-3.556v-.392h.448c.205 0 .36-.033.462-.098.103-.065.163-.135.182-.21a1.31 1.31 0 00.028-.308V37.15c0-.215-.047-.369-.14-.462-.084-.103-.261-.154-.532-.154h-.448v-.42h2.156l2.66-.14c.84 0 1.517.182 2.03.546.513.364.77.877.77 1.54 0 .653-.154 1.227-.462 1.722-.299.485-.672.85-1.12 1.092-.85.448-1.61.672-2.282.672-.392 0-.7-.01-.924-.028l-.112-.56zm10.853 4.956h-2.016v-1.12c-.467.504-.854.85-1.162 1.036-.308.187-.728.28-1.26.28-.523 0-.933-.121-1.232-.364-.29-.252-.434-.602-.434-1.05 0-.448.191-.882.574-1.302.392-.43.845-.751 1.358-.966.523-.224.98-.392 1.372-.504.392-.121.653-.182.784-.182v-.308c0-.877-.364-1.316-1.092-1.316a3.17 3.17 0 00-1.414.322c-.43.215-.751.49-.966.826l-.28-.252c.625-1.213 1.708-1.82 3.248-1.82.392 0 .714.107.966.322.261.205.434.448.518.728.093.28.14.593.14.938v3.78c0 .121.01.215.028.28.019.065.075.13.168.196.103.056.252.084.448.084h.252v.392zm-2.016-1.904v-1.708c-.728.14-1.405.42-2.03.84-.625.42-.938.877-.938 1.372 0 .196.093.369.28.518.196.14.434.21.714.21.29 0 .63-.126 1.022-.378a4.05 4.05 0 00.952-.854zm6.129 1.904h-3.024v-.392h.224c.252 0 .41-.042.476-.126.074-.084.112-.22.112-.406v-4.2c0-.177-.061-.303-.182-.378-.112-.084-.322-.126-.63-.126v-.392c.186 0 .466-.065.84-.196.382-.14.672-.27.868-.392l.252-.056v1.736c.336-.737.718-1.223 1.148-1.456.429-.243 1.064-.364 1.904-.364l-.084 1.624h-.42a.58.58 0 00-.154-.378c-.094-.121-.248-.182-.462-.182-.467 0-.906.252-1.316.756-.411.504-.616.99-.616 1.456v2.464c0 .15.004.257.014.322.018.065.074.13.168.196.093.065.238.098.434.098h.448v.392zm6.556-.868l.112.336c-.7.485-1.465.728-2.296.728a1.05 1.05 0 01-.77-.322c-.214-.215-.322-.5-.322-.854v-4.956h-.812v-.588h.308c.308 0 .593-.187.854-.56.271-.373.406-.719.406-1.036h.364v1.596h1.904v.588h-1.372c-.354 0-.532.168-.532.504v4.004c0 .616.224.924.672.924.504 0 1-.121 1.484-.364zm.783.476l.14-1.512.392.028c0 .317.205.62.616.91.41.29.854.434 1.33.434.98 0 1.47-.299 1.47-.896 0-.299-.126-.565-.378-.798a3.09 3.09 0 00-.91-.574l-1.064-.476a3.08 3.08 0 01-.91-.644 1.319 1.319 0 01-.378-.924c0-1.213.896-1.82 2.688-1.82.401 0 .84.112 1.316.336l-.084 1.4h-.336c0-.261-.154-.513-.462-.756a1.521 1.521 0 00-.98-.364c-.355 0-.658.07-.91.21a.682.682 0 00-.364.63c0 .27.126.495.378.672.252.177.555.322.91.434.355.112.71.238 1.064.378.355.14.658.369.91.686.252.317.378.714.378 1.19s-.154.873-.462 1.19c-.55.57-1.349.854-2.394.854-.812 0-1.465-.196-1.96-.588z" fill="#000"/></g><defs><filter id="filter0_d" x=".131" y="1.86" width="98.568" height="27.94" filterUnits="userSpaceOnUse" color-interpolation-filters="sRGB"><feFlood flood-opacity="0" result="BackgroundImageFix"/><feColorMatrix in="SourceAlpha" values="0 0 0 0 0 0 0 0 0 0 0 0 0 0 0 0 0 0 127 0"/><feOffset dx="1" dy="-.5"/><feGaussianBlur stdDeviation="1"/><feColorMatrix values="0 0 0 0 0 0 0 0 0 0 0 0 0 0 0 0 0 0 0.25 0"/><feBlend in2="BackgroundImageFix" result="effect1_dropShadow"/><feBlend in="SourceGraphic" in2="effect1_dropShadow" result="shape"/></filter><filter id="filter1_d" x="3.564" y="32.747" width="94.413" height="17.944" filterUnits="userSpaceOnUse" color-interpolation-filters="sRGB"><feFlood flood-opacity="0" result="BackgroundImageFix"/><feColorMatrix in="SourceAlpha" values="0 0 0 0 0 0 0 0 0 0 0 0 0 0 0 0 0 0 127 0"/><feOffset dx="1" dy="-.5"/><feGaussianBlur stdDeviation="1"/><feColorMatrix values="0 0 0 0 0 0 0 0 0 0 0 0 0 0 0 0 0 0 0.25 0"/><feBlend in2="BackgroundImageFix" result="effect1_dropShadow"/><feBlend in="SourceGraphic" in2="effect1_dropShadow" result="shape"/></filter></defs></svg>