<svg width="40" height="40" fill="none" xmlns="http://www.w3.org/2000/svg"><g clip-path="url(#clip0)"><path d="M37.8 2.2C36.332.734 34.565 0 32.5 0h-25C5.434 0 3.668.734 2.2 2.2.735 3.667 0 5.434 0 7.5v25c0 2.066.734 3.832 2.2 5.3C3.669 39.267 5.435 40 7.5 40h25c2.066 0 3.833-.733 5.3-2.2 1.466-1.468 2.2-3.234 2.2-5.3v-25c0-2.066-.734-3.833-2.2-5.3zm-4.466 19.466c0 .452-.166.843-.495 1.172a1.6 1.6 0 01-1.172.495h-8.333v8.333c0 .452-.166.842-.495 1.172a1.6 1.6 0 01-1.172.495h-3.333a1.6 1.6 0 01-1.172-.495 1.6 1.6 0 01-.495-1.172v-8.333H8.333c-.45 0-.841-.165-1.171-.495a1.6 1.6 0 01-.495-1.172v-3.333c0-.451.165-.842.495-1.172a1.6 1.6 0 011.171-.495h8.334V8.333a1.6 1.6 0 01.495-1.172 1.6 1.6 0 011.172-.495h3.333a1.6 1.6 0 011.172.495c.33.33.495.72.495 1.172v8.333h8.333c.451 0 .842.165 1.172.495.33.33.495.72.495 1.172v3.334z" fill="#005FFD"/></g><defs><clipPath id="clip0"><path fill="#fff" d="M0 0h40v40H0z"/></clipPath></defs></svg>