<svg width="19" height="18" fill="none" xmlns="http://www.w3.org/2000/svg"><g filter="url(#filter0_d)"><path d="M12.933 16.297h-1.152l-.469-.469.008-12.656 3.69.652a.293.293 0 01.238.338l-2.026 11.891a.293.293 0 01-.289.244z" fill="#FDBF44"/><path d="M11.32 3.172l-.008 12.656.47.469h.468V3.337l-.93-.165z" fill="#E6AD3E"/><path d="M11.488 2.703H1.996a.293.293 0 00-.293.293v13.008c0 .162.131.293.293.293h9.492a.293.293 0 00.293-.293V2.996a.293.293 0 00-.293-.293z" fill="#3165BC"/><path d="M4.633 9.5H3.46a.586.586 0 00-.586.586v1.172c0 .323.262.586.586.586h1.172a.586.586 0 00.586-.586v-1.172a.586.586 0 00-.586-.586zm0 3.516H3.46a.586.586 0 00-.586.586v1.171c0 .324.262.586.586.586h1.172a.586.586 0 00.586-.586v-1.171a.586.586 0 00-.586-.586z" fill="#FCFEFF"/><path d="M4.281 11.375a.234.234 0 01-.165-.069l-.704-.703.332-.331.524.524L5.51 9.347l.355.306-1.406 1.64a.234.234 0 01-.169.082h-.009zm0 3.515a.234.234 0 01-.165-.068l-.704-.703.332-.332.524.524 1.242-1.448.355.305-1.406 1.64a.234.234 0 01-.169.082h-.009z" fill="#80DAFF"/><path d="M6.39 12.781h3.516v.469H6.391v-.469zm0 1.172h1.173v.469H6.39v-.469zm1.641 0h1.875v.469H8.031v-.469zM6.39 9.266h3.516v.468H6.391v-.468zm0 1.172h1.173v.468H6.39v-.469zm1.641 0h1.875v.468H8.031v-.469zM6.856 3.64l-2.106.94.176 1.115a3.603 3.603 0 001.421 2.259l.511.376.487-.354a3.602 3.602 0 001.44-2.272l.178-1.124-2.107-.94zm-.07 2.98a.234.234 0 01-.332 0l-.703-.703.331-.331.537.537 1.241-1.24.331.331-1.406 1.407zM2.64 3.406h1.407v.469H2.64v-.469zm0 .938h.938v.468h-.937v-.468zm7.032-.938h.469v.469h-.47v-.469zm.938 0h.468v.469h-.469v-.469z" fill="#FCFEFF"/></g><defs><filter id="filter0_d" x="0" y="-.5" width="19" height="19" filterUnits="userSpaceOnUse" color-interpolation-filters="sRGB"><feFlood flood-opacity="0" result="BackgroundImageFix"/><feColorMatrix in="SourceAlpha" values="0 0 0 0 0 0 0 0 0 0 0 0 0 0 0 0 0 0 127 0"/><feOffset dx="1" dy="-.5"/><feGaussianBlur stdDeviation="1"/><feColorMatrix values="0 0 0 0 0 0 0 0 0 0 0 0 0 0 0 0 0 0 0.25 0"/><feBlend in2="BackgroundImageFix" result="effect1_dropShadow"/><feBlend in="SourceGraphic" in2="effect1_dropShadow" result="shape"/></filter></defs></svg>