<svg width="19" height="20" fill="none" xmlns="http://www.w3.org/2000/svg"><g filter="url(#filter0_d)"><path d="M1.608 4.58v11.824c0 .873 3.086 1.58 6.892 1.58 3.806 0 6.892-.707 6.892-1.58V4.58H1.608z" fill="#DFEAEF"/><path d="M13.817 4.58v3.942c0 .811-2.669 1.48-6.104 1.57.258.006.52.01.787.01 2.14 0 4.053-.224 5.317-.575v2.936c0 .812-2.669 1.48-6.104 1.57.258.007.52.01.787.01 2.14 0 4.053-.223 5.317-.574v2.95c0 .812-2.669 1.481-6.104 1.57.258.007.52.011.787.011 3.806 0 6.892-.707 6.892-1.58v-3.942h-.001V4.58h-1.574z" fill="#BFCFD6"/><path d="M8.5 9.642c-3.806 0-6.892-.708-6.892-1.58v.46c0 .873 3.086 1.58 6.892 1.58 3.806 0 6.892-.707 6.892-1.58v-.46c0 .872-3.086 1.58-6.892 1.58zm0 3.941c-3.806 0-6.892-.707-6.892-1.58v.46c0 .873 3.086 1.58 6.892 1.58 3.806 0 6.892-.707 6.892-1.58v-.46c0 .873-3.086 1.58-6.892 1.58zm0 3.943c-3.806 0-6.892-.708-6.892-1.58v.46c0 .872 3.086 1.58 6.892 1.58 3.806 0 6.892-.708 6.892-1.58v-.46c0 .872-3.086 1.58-6.892 1.58z" fill="#6AB6D0"/><path d="M8.5 6.16c3.806 0 6.892-.707 6.892-1.58C15.392 3.708 12.306 3 8.5 3c-3.806 0-6.892.708-6.892 1.58 0 .873 3.086 1.58 6.892 1.58z" fill="#3165BC"/><path d="M8.5 3c-.266 0-.529.004-.787.01 3.435.09 6.104.759 6.104 1.57 0 .812-2.669 1.48-6.104 1.57.258.007.52.01.787.01 3.806 0 6.892-.707 6.892-1.58C15.392 3.708 12.306 3 8.5 3z" fill="#6AB6D0"/><path d="M12.686 8.41a.656.656 0 100-1.311.656.656 0 000 1.311z" fill="#FC9F3D"/><path d="M8.5 8.371c-1.888 0-3.657-.171-4.982-.482a.226.226 0 11.104-.44c1.291.302 3.024.47 4.878.47.777 0 1.539-.03 2.264-.089a.226.226 0 11.037.451c-.738.06-1.512.09-2.301.09z" fill="#3165BC"/><path d="M12.686 12.3a.656.656 0 100-1.312.656.656 0 000 1.312z" fill="#FC9F3D"/><path d="M8.5 12.26c-1.888 0-3.657-.17-4.982-.482a.226.226 0 01.104-.44c1.291.303 3.024.47 4.878.47.777 0 1.539-.03 2.264-.088a.226.226 0 11.037.45c-.738.06-1.512.09-2.301.09z" fill="#3165BC"/><path d="M12.686 16.195a.656.656 0 100-1.311.656.656 0 000 1.311z" fill="#FC9F3D"/><path d="M8.5 16.156c-1.888 0-3.657-.171-4.982-.482a.226.226 0 01.104-.44c1.291.303 3.024.47 4.878.47.777 0 1.539-.03 2.264-.089a.226.226 0 11.037.451c-.738.06-1.512.09-2.301.09z" fill="#3165BC"/></g><defs><filter id="filter0_d" x="0" y=".5" width="19" height="19" filterUnits="userSpaceOnUse" color-interpolation-filters="sRGB"><feFlood flood-opacity="0" result="BackgroundImageFix"/><feColorMatrix in="SourceAlpha" values="0 0 0 0 0 0 0 0 0 0 0 0 0 0 0 0 0 0 127 0"/><feOffset dx="1" dy="-.5"/><feGaussianBlur stdDeviation="1"/><feColorMatrix values="0 0 0 0 0 0 0 0 0 0 0 0 0 0 0 0 0 0 0.25 0"/><feBlend in2="BackgroundImageFix" result="effect1_dropShadow"/><feBlend in="SourceGraphic" in2="effect1_dropShadow" result="shape"/></filter></defs></svg>