<svg width="19" height="20" fill="none" xmlns="http://www.w3.org/2000/svg"><g clip-path="url(#clip0)" filter="url(#filter0_d)"><path d="M2.7 5.17a.937.937 0 101.876 0 .937.937 0 00-1.875 0z" fill="#F5737F"/><path d="M12.424 15.83a.938.938 0 101.875 0 .938.938 0 00-1.875 0z" fill="#D8EC84"/><path d="M4.257 9.581c.111-.52.316-1.004.595-1.436l-.561-.562L5.587 6.29l.56.56a4.342 4.342 0 011.437-.595v-.793h1.832v.793c.52.112 1.004.316 1.437.595l.56-.56 1.296 1.294-.561.562c.28.432.484.917.595 1.436h.796v1.832h-.796a4.31 4.31 0 01-.595 1.437l.563.563-1.295 1.296-.563-.564c-.433.28-.918.484-1.437.596v.798H7.584v-.798a4.316 4.316 0 01-1.437-.596l-.564.564-1.294-1.296.563-.563a4.312 4.312 0 01-.595-1.437H3.46V9.581h.797zM8.5 12.628a2.128 2.128 0 100-4.256 2.128 2.128 0 000 4.256z" fill="#4285F4"/><path d="M13.362 14.6c.21 0 .412.053.59.15a6.927 6.927 0 001.462-4.25 6.922 6.922 0 00-8.29-6.777.293.293 0 01-.117-.574C7.495 3.05 7.997 3 8.5 3a7.45 7.45 0 015.303 2.197A7.45 7.45 0 0116 10.5c0 1.685-.572 3.33-1.614 4.648.134.2.206.436.206.683a1.226 1.226 0 01-1.23 1.23c-.329 0-.638-.128-.87-.36a1.222 1.222 0 01-.36-.87c0-.33.127-.638.36-.87.232-.233.541-.36.87-.36zm-.456 1.686a.64.64 0 00.912 0 .64.64 0 00.188-.456.64.64 0 00-.644-.644.64.64 0 00-.645.645.64.64 0 00.19.455zM2.614 5.852a1.233 1.233 0 011.024-1.913c.329 0 .638.128.87.36.233.233.36.542.36.87 0 .33-.127.638-.36.87-.232.233-.541.36-.87.36a1.22 1.22 0 01-.59-.15A6.927 6.927 0 001.585 10.5a6.922 6.922 0 008.278 6.78.293.293 0 01.115.574A7.561 7.561 0 018.5 18a7.451 7.451 0 01-5.303-2.197A7.451 7.451 0 011 10.5c0-1.685.572-3.33 1.614-4.648zm1.48-.227a.64.64 0 000-.911.64.64 0 00-.912 0 .645.645 0 00.912.911z" fill="#444"/><path d="M9.709 15.54a.293.293 0 01-.293.292H7.584a.293.293 0 01-.293-.293v-.568a4.59 4.59 0 01-1.1-.456l-.4.401a.293.293 0 01-.415 0l-1.295-1.295a.293.293 0 010-.415l.401-.4a4.589 4.589 0 01-.456-1.1H3.46a.293.293 0 01-.292-.293V9.581c0-.161.13-.293.292-.293h.566c.104-.385.257-.753.456-1.099l-.398-.398a.293.293 0 010-.415L5.38 6.081a.293.293 0 01.414 0l.398.398a4.561 4.561 0 011.1-.455V5.46c0-.162.13-.293.292-.293h1.832c.162 0 .293.131.293.293v.563c.385.103.753.256 1.1.455l.397-.398a.293.293 0 01.415 0l1.295 1.295a.293.293 0 010 .415l-.398.398c.2.346.352.714.456 1.1h.565c.161 0 .293.13.293.292v1.832a.293.293 0 01-.293.293h-.565a4.588 4.588 0 01-.456 1.1l.4.4c.115.115.115.3 0 .415l-1.294 1.295a.293.293 0 01-.414 0l-.401-.4a4.636 4.636 0 01-1.1.455v.568zm.985-1.64a.293.293 0 01.366.038l.356.357.881-.881-.356-.357a.293.293 0 01-.04-.366 4.01 4.01 0 00.556-1.34.293.293 0 01.286-.23h.503V9.873h-.503a.293.293 0 01-.286-.231 4.01 4.01 0 00-.555-1.34.293.293 0 01.039-.365l.354-.355-.881-.88-.354.354a.293.293 0 01-.366.039 4.009 4.009 0 00-1.34-.555.293.293 0 01-.231-.287v-.5H7.877v.5a.293.293 0 01-.231.287 4.01 4.01 0 00-1.34.554.293.293 0 01-.366-.038l-.353-.354-.882.88.354.355c.098.097.114.25.04.366a4.013 4.013 0 00-.556 1.339.293.293 0 01-.286.231h-.504v1.246h.504c.138 0 .257.097.286.232.103.477.29.928.555 1.339a.293.293 0 01-.039.366l-.356.356.88.882.357-.357a.293.293 0 01.367-.039c.41.266.861.453 1.339.555a.293.293 0 01.231.287v.505h1.246v-.505c0-.138.096-.258.231-.287a4.01 4.01 0 001.34-.555z" fill="#444"/><path d="M6.08 10.5A2.423 2.423 0 018.5 8.08a2.424 2.424 0 012.42 2.42 2.424 2.424 0 01-2.42 2.42 2.424 2.424 0 01-2.42-2.42zm4.255 0A1.837 1.837 0 008.5 8.665 1.837 1.837 0 006.665 10.5c0 1.012.823 1.835 1.835 1.835a1.837 1.837 0 001.835-1.835zM5.802 4.108a.295.295 0 01-.293-.293.295.295 0 01.5-.207c.055.054.086.13.086.207a.296.296 0 01-.293.293zm5.383 12.789a.296.296 0 01.293.293.295.295 0 01-.293.293.295.295 0 01-.293-.293.296.296 0 01.293-.293z" fill="#444"/></g><defs><clipPath id="clip0"><path fill="#fff" transform="matrix(-1 0 0 1 16 3)" d="M0 0h15v15H0z"/></clipPath><filter id="filter0_d" x="0" y=".5" width="19" height="19" filterUnits="userSpaceOnUse" color-interpolation-filters="sRGB"><feFlood flood-opacity="0" result="BackgroundImageFix"/><feColorMatrix in="SourceAlpha" values="0 0 0 0 0 0 0 0 0 0 0 0 0 0 0 0 0 0 127 0"/><feOffset dx="1" dy="-.5"/><feGaussianBlur stdDeviation="1"/><feColorMatrix values="0 0 0 0 0 0 0 0 0 0 0 0 0 0 0 0 0 0 0.25 0"/><feBlend in2="BackgroundImageFix" result="effect1_dropShadow"/><feBlend in="SourceGraphic" in2="effect1_dropShadow" result="shape"/></filter></defs></svg>