<svg width="19" height="15" fill="none" xmlns="http://www.w3.org/2000/svg"><g filter="url(#filter0_d)" fill="#3165BC"><path d="M8.5 7.174a2.283 2.283 0 100-4.565 2.283 2.283 0 000 4.565zm4.565 1.304a1.63 1.63 0 100-3.26 1.63 1.63 0 000 3.26zm-9.084 0a1.63 1.63 0 100-3.26 1.63 1.63 0 000 3.26zM8.5 7.826a4.244 4.244 0 00-4.24 4.24c0 .18.147.325.327.325h7.826c.18 0 .326-.146.326-.326A4.244 4.244 0 008.5 7.826zM4.543 9.2c-.2-.041-.402-.07-.608-.07A2.938 2.938 0 001 12.065c0 .18.146.326.326.326H3.67a.967.967 0 01-.06-.326c0-1.07.35-2.058.934-2.864zm8.522-.07c-.206 0-.409.029-.608.07a4.86 4.86 0 01.934 2.865.968.968 0 01-.06.326h2.343c.18 0 .326-.146.326-.326a2.938 2.938 0 00-2.935-2.935z"/></g><defs><filter id="filter0_d" x="0" y="-2.5" width="19" height="19" filterUnits="userSpaceOnUse" color-interpolation-filters="sRGB"><feFlood flood-opacity="0" result="BackgroundImageFix"/><feColorMatrix in="SourceAlpha" values="0 0 0 0 0 0 0 0 0 0 0 0 0 0 0 0 0 0 127 0"/><feOffset dx="1" dy="-.5"/><feGaussianBlur stdDeviation="1"/><feColorMatrix values="0 0 0 0 0 0 0 0 0 0 0 0 0 0 0 0 0 0 0.25 0"/><feBlend in2="BackgroundImageFix" result="effect1_dropShadow"/><feBlend in="SourceGraphic" in2="effect1_dropShadow" result="shape"/></filter></defs></svg>